<?xml version="1.0" standalone="no"?><!DOCTYPE svg PUBLIC "-//W3C//DTD SVG 1.1//EN" "http://www.w3.org/Graphics/SVG/1.1/DTD/svg11.dtd"><svg t="1734006030055" class="icon" viewBox="0 0 1024 1024" version="1.1" xmlns="http://www.w3.org/2000/svg" p-id="6010" xmlns:xlink="http://www.w3.org/1999/xlink" width="20" height="20"><path d="M443.733333 443.733333H170.666667V170.666667h273.066666v273.066666z m-204.8-68.266666h136.533334V238.933333H238.933333v136.533334z" fill="#3D3066" p-id="6011"></path><path d="M853.333333 921.6h-273.066666v-273.066667h273.066666v273.066667z m-204.8-68.266667h136.533334v-136.533333h-136.533334v136.533333z" fill="#FFB297" p-id="6012"></path><path d="M846.506667 269.653333c-51.2-64.853333-109.226667-92.16-170.666667-109.226666l47.786667-30.72c17.066667-10.24 20.48-30.72 10.24-47.786667-10.24-17.066667-30.72-20.48-47.786667-10.24l-122.88 78.506667-27.306667 17.066666 13.653334 27.306667 71.68 136.533333c10.24 17.066667 30.72 23.893333 47.786666 13.653334 17.066667-10.24 23.893333-30.72 13.653334-47.786667l-40.96-78.506667c54.613333 10.24 105.813333 34.133333 150.186666 88.746667 61.44 78.506667 78.506667 153.6 78.506667 235.52 0 20.48 13.653333 34.133333 34.133333 34.133333s34.133333-13.653333 34.133334-34.133333c0-88.746667-17.066667-180.906667-92.16-273.066667zM491.52 863.573333l-71.68-136.533333c-10.24-17.066667-30.72-23.893333-47.786667-13.653333-17.066667 10.24-23.893333 30.72-13.653333 47.786666l40.96 78.506667c-54.613333-10.24-105.813333-34.133333-150.186667-88.746667C187.733333 669.013333 170.666667 590.506667 170.666667 512c0-20.48-13.653333-34.133333-34.133334-34.133333s-34.133333 13.653333-34.133333 34.133333c0 92.16 17.066667 184.32 92.16 276.48 51.2 64.853333 109.226667 92.16 170.666667 109.226667l-47.786667 30.72c-17.066667 10.24-20.48 30.72-10.24 47.786666 10.24 17.066667 30.72 20.48 47.786667 10.24l122.88-78.506666 27.306666-17.066667-13.653333-27.306667z" fill="#7F60F0" p-id="6013"></path></svg>