<?xml version="1.0" standalone="no"?><!DOCTYPE svg PUBLIC "-//W3C//DTD SVG 1.1//EN" "http://www.w3.org/Graphics/SVG/1.1/DTD/svg11.dtd"><svg t="1727099947814" class="icon" viewBox="0 0 1024 1024" version="1.1" xmlns="http://www.w3.org/2000/svg" p-id="1161" xmlns:xlink="http://www.w3.org/1999/xlink" width="20" height="20"><path d="M742.72279502 962H280.98744365A98.95363769 98.95363769 0 0 1 182.17868662 863.0463623V160.9536377A99.09851924 99.09851924 0 0 1 280.98744365 62h461.73535137a99.2433999 99.2433999 0 0 1 99.09851836 98.95363769v702.09272461a99.09851924 99.09851924 0 0 1-99.09851836 98.9536377zM280.98744365 98.50998096a62.44365761 62.44365761 0 0 0-62.29877695 62.44365674v702.09272461a62.44365761 62.44365761 0 0 0 62.29877695 62.29877607h461.73535137a62.44365761 62.44365761 0 0 0 62.44365673-62.29877607V160.9536377a62.44365761 62.44365761 0 0 0-62.44365673-62.44365674z" fill="#00BFB3" p-id="1162"></path><path d="M486.428525 904.33741133h-42.01545323a18.25499003 18.25499003 0 1 1 0-36.50998096H486.428525a18.25499003 18.25499003 0 0 1 0 36.50998096zM582.48454589 904.33741133h-41.43593056a18.25499003 18.25499003 0 0 1 0-36.50998096h41.43593057a18.25499003 18.25499003 0 1 1 0 36.50998096zM582.48454589 156.46233096H444.41307178a18.39987158 18.39987158 0 0 1 0-36.50998096h138.07147411a18.39987158 18.39987158 0 1 1 1e-8 36.65486162z" fill="#00BFB3" p-id="1163"></path><path d="M742.72279502 177.90470088H281.13232432a18.11010938 18.11010938 0 0 0-18.25499005 17.6754665V828.41983261a18.25499003 18.25499003 0 0 0 18.25499005 18.25499005h461.5904707A18.39987158 18.39987158 0 0 0 761.70218925 828.41983261V195.58016739A18.25499003 18.25499003 0 0 0 742.72279502 177.90470088zM382.40405703 810.16484258V328.58081123h101.4166125v25.64391533H437.16902803a18.39987158 18.39987158 0 0 0-1e-8 36.65486162h46.79652217v41.14616836h-19.99356064a18.25499003 18.25499003 0 0 0 0 36.50998096h19.99356064v41.29104902h-19.99356064a18.25499003 18.25499003 0 0 0 0 36.50998096h19.99356064v41.14616836h-19.99356064a18.39987158 18.39987158 0 0 0 0 36.65486162h19.99356064v41.14616924H437.16902803a18.25499003 18.25499003 0 0 0-1e-8 36.50998007h46.79652217V742.94011602h-19.99356064a18.25499003 18.25499003 0 0 0 0 36.50998096h19.99356064v30.56986406z m261.94462295 0H602.33322588V441.58789443a50.85318779 50.85318779 0 0 0 21.44236992 4.78106895 49.69414073 49.69414073 0 0 0 21.29748838-4.78106895z m-38.39343222-408.27430811l17.09594384-42.45009697 16.95106231 42.45009697-8.8377337 5.50547314a14.4880875 14.4880875 0 0 1-16.2266581 0z m118.65743701 408.27430811h-43.4642625V409.71410176a18.39987158 18.39987158 0 0 0-1.30392774-6.22987734l-39.84224062-99.96780499a18.39987158 18.39987158 0 0 0-34.04700615 0l-39.69735997 99.09851924a18.25499003 18.25499003 0 0 0-1.15904706 6.22987823v401.32002568h-44.62330958v-499.83902139a18.25499003 18.25499003 0 0 0-18.25499003-18.25499091h-138.21635567a18.25499003 18.25499003 0 0 0-18.11010938 18.25499091v499.83902139H299.24243369V213.83515742h425.37025108z" fill="#00BFB3" p-id="1164"></path></svg>