<?xml version="1.0" standalone="no"?><!DOCTYPE svg PUBLIC "-//W3C//DTD SVG 1.1//EN" "http://www.w3.org/Graphics/SVG/1.1/DTD/svg11.dtd"><svg t="1725860196755" class="icon" viewBox="0 0 1024 1024" version="1.1" xmlns="http://www.w3.org/2000/svg" p-id="24872" xmlns:xlink="http://www.w3.org/1999/xlink" width="20" height="20"><path d="M768 341.333333a85.333333 85.333333 0 1 1-170.666667 0 85.333333 85.333333 0 0 1 170.666667 0z" fill="#4096FF" p-id="24873"></path><path d="M509.582222 53.333333h4.835556c98.531556 0 175.701333 0 235.975111 8.106667 61.610667 8.277333 110.222222 25.6 148.423111 63.744 38.172444 38.200889 55.466667 86.840889 63.744 148.48 8.106667 60.216889 8.106667 137.386667 8.106667 235.889778v3.783111c0 81.436444 0 148.081778-4.437334 202.353778-4.437333 54.613333-13.539556 100.124444-33.934222 138.012444A191.260444 191.260444 0 0 1 898.844444 898.844444c-38.200889 38.172444-86.812444 55.466667-148.48 63.744-60.216889 8.106667-137.386667 8.106667-235.918222 8.106667h-4.835555c-98.531556 0-175.701333 0-235.946667-8.106667-61.610667-8.277333-110.250667-25.6-148.451556-63.744-33.848889-33.848889-51.313778-75.946667-60.586666-128.256-9.187556-51.342222-10.837333-115.2-11.178667-194.474666-0.085333-20.195556-0.085333-41.528889-0.085333-64.056889v-2.474667c0-98.503111 0-175.701333 8.106666-235.946666 8.277333-61.582222 25.6-110.222222 63.744-148.423112 38.200889-38.172444 86.840889-55.466667 148.48-63.744 60.216889-8.106667 137.386667-8.106667 235.889778-8.106666zM282.168889 124.842667c-54.556444 7.338667-87.438222 21.333333-111.729778 45.596444-24.291556 24.348444-38.257778 57.173333-45.596444 111.758222-7.424 55.466667-7.509333 128.341333-7.509334 229.802667 0 22.584889 0 43.776 0.085334 63.772444 0.341333 79.957333 2.133333 138.524444 10.154666 183.608889 7.850667 44.174222 21.248 72.533333 42.865778 94.151111 24.348444 24.32 57.173333 38.286222 111.758222 45.624889 55.466667 7.424 128.341333 7.509333 229.802667 7.509334 101.461333 0 174.336-0.085333 229.802667-7.509334 54.556444-7.338667 87.466667-21.333333 111.786666-45.624889 8.96-8.96 16.270222-18.858667 22.357334-30.151111 14.165333-26.282667 22.300444-61.44 26.481777-112.839111 4.209778-51.427556 4.238222-115.512889 4.238223-198.542222 0-101.461333-0.085333-174.336-7.509334-229.802667-7.338667-54.556444-21.333333-87.466667-45.624889-111.786666-24.32-24.263111-57.173333-38.229333-111.729777-45.568-55.466667-7.424-128.341333-7.509333-229.802667-7.509334-101.461333 0-174.364444 0.085333-229.831111 7.509334z" fill="#4096FF" p-id="24874"></path><path d="M879.217778 816.896l-120.718222-108.657778a128 128 0 0 0-159.260445-9.614222l-12.743111 8.96a85.333333 85.333333 0 0 1-109.397333-9.472l-183.04-183.04a98.133333 98.133333 0 0 0-133.973334-4.437333l-42.752 37.376 0.085334 27.733333c0.341333 80.014222 2.133333 138.524444 10.154666 183.637333 7.879111 44.174222 21.248 72.533333 42.865778 94.151111 24.348444 24.32 57.173333 38.286222 111.758222 45.624889 55.466667 7.424 128.341333 7.509333 229.802667 7.509334 101.461333 0 174.364444-0.085333 229.831111-7.509334 54.556444-7.338667 87.438222-21.333333 111.729778-45.624889 10.638222-10.609778 19.342222-23.011556 25.656889-36.636444z" fill="#4096FF" opacity=".4" p-id="24875"></path></svg>